{"title":"Shark Night 2011 TS x264 Feel-Free","uid":6650538,"size":1008037517,"categoryP":"video","categoryS":"movies","magnet":"?xt=urn:btih:0914a787ff39c5c3054cfdd90c7f7832947e322f&amp;dn=Shark+Night+2011+TS+x264+Feel-Free&amp;tr=udp%3A%2F%2Ftracker.openbittorrent.com%3A80&amp;tr=udp%3A%2F%2Fopen.demonii.com%3A1337&amp;tr=udp%3A%2F%2Ftracker.coppersurfer.tk%3A6969&amp;tr=udp%3A%2F%2Fexodus.desync.com%3A6969","seeders":0,"leechers":1,"uploader":"SnowCrash03","files":-1,"time":1315132797,"description":"Genre: Horror | Thriller\n Language: English\n IMDb: http://www.imdb.com/title/tt1633356/\n Source: Chelyusti.2011.D.T/REVELATiON Thanks!\n-\n\nFormat : MPEG-4\n Format profile : Base Media\n Codec ID : isom\n File size : 961 MiB\n Duration : 1h 17mn\n Overall bit rate : 1 726 Kbps\n-\n\nVideo\n ID : 1\n Format : AVC\n Format/Info : Advanced Video Codec\n Format profile : &lt;a class=&quot;__cf_email__&quot; href=&quot;/cdn-cgi/l/email-protection&quot; data-cfemail=&quot;d39bbab4bb939fe7fde2&quot;&gt;[email&amp;#160;protected]&lt;/a&gt;&lt;script data-cfhash='f9e31' type=&quot;text/javascript&quot;&gt;\n/* &lt;![CDATA[ */!function(){try{var t=&quot;currentScript&quot;in document?document.currentScript:function(){for(var t=document.getElementsByTagName(&quot;script&quot;),e=t.length;e--;)if(t[e].getAttribute(&quot;data-cfhash&quot;))return t[e]}();if(t&amp;&amp;t.previousSibling){var e,r,n,i,c=t.previousSibling,a=c.getAttribute(&quot;data-cfemail&quot;);if(a){for(e=&quot;&quot;,r=parseInt(a.substr(0,2),16),n=2;a.length-n;n+=2)i=parseInt(a.substr(n,2),16)^r,e+=String.fromCharCode(i);e=document.createTextNode(e),c.parentNode.replaceChild(e,c)}t.parentNode.removeChild(t);}}catch(u){}}()/* ]]&gt; */&lt;/script&gt;\n Format settings, CABAC : Yes\n Format settings, ReFrames : 3 frames\n Codec ID : avc1\n Codec ID/Info : Advanced Video Coding\n Duration : 1h 17mn\n Bit rate mode : Variable\n Bit rate : 1 500 Kbps\n Maximum bit rate : 7 661 Kbps\n Width : 720 pixels\n Height : 272 pixels\n Display aspect ratio : 2.647\n Frame rate mode : Constant\n Frame rate : 25.000 fps\n Color space : YUV\n Chroma subsampling : 4:2:0\n Bit depth : 8 bits\n Scan type : Progressive\n Bits/(Pixel*Frame) : 0.306\n Stream size : 835 MiB (87%)\n Writing library : x264\n \nAudio\n ID : 2\n Format : AAC\n Format/Info : Advanced Audio Codec\n Format version : Version 4\n Format profile : LC\n Format settings, SBR : No\n Codec ID : 40\n Duration : 1h 17mn\n Bit rate mode : Variable\n Bit rate : 224 Kbps\n Maximum bit rate : 283 Kbps\n Channel(s) : 2 channels\n Channel positions : Front: L R\n Sampling rate : 44.1 KHz\n Stream size : 125 MiB (13%)\n\n\n\nPlot:\n A weekend at a lake house in the Louisiana Gulf turns into a nightmare for seven vacationers as they are subjected to fresh-water shark attacks\n \n","torrent":{"xt":"urn:btih:0914a787ff39c5c3054cfdd90c7f7832947e322f","amp;dn":"Shark+Night+2011+TS+x264+Feel-Free","amp;tr":["udp%3A%2F%2Ftracker.openbittorrent.com%3A80","udp%3A%2F%2Fopen.demonii.com%3A1337","udp%3A%2F%2Ftracker.coppersurfer.tk%3A6969","udp%3A%2F%2Fexodus.desync.com%3A6969"],"infoHash":"0914a787ff39c5c3054cfdd90c7f7832947e322f","infoHashBuffer":{"type":"Buffer","data":[9,20,167,135,255,57,197,195,5,76,253,217,12,127,120,50,148,126,50,47]},"announce":[],"urlList":[]}}